<?xml version="1.0" standalone="no"?>
<!DOCTYPE svg PUBLIC "-//W3C//DTD SVG 20010904//EN"
 "http://www.w3.org/TR/2001/REC-SVG-20010904/DTD/svg10.dtd">
<svg version="1.0" xmlns="http://www.w3.org/2000/svg"
 width="100.000000pt" height="100.000000pt" viewBox="0 0 100.000000 100.000000"
 preserveAspectRatio="xMidYMid meet">

<g transform="translate(0.000000,100.000000) scale(0.100000,-0.100000)"
fill="#000000" stroke="none">
<path d="M409 934 c-7 -8 -25 -22 -41 -30 -40 -21 -54 -58 -57 -149 -2 -93 13
-134 22 -58 15 126 22 140 77 145 22 2 50 0 62 -5 13 -5 41 -11 63 -14 45 -5
97 -54 115 -108 10 -30 10 -30 7 8 -2 20 -1 37 3 37 3 0 6 14 7 30 1 19 -2 28
-8 24 -6 -3 -9 0 -8 7 2 8 0 24 -5 36 -6 20 -13 22 -58 18 -61 -5 -120 23
-110 53 6 18 19 15 24 -6 4 -14 14 -19 41 -18 56 2 54 13 -4 30 -67 20 -113
20 -130 0z m-6 -69 c1 -5 -6 -11 -15 -13 -11 -2 -18 3 -18 13 0 17 30 18 33 0z
m237 -65 c0 -5 -2 -10 -4 -10 -3 0 -8 5 -11 10 -3 6 -1 10 4 10 6 0 11 -4 11
-10z"/>
<path d="M410 670 c0 -5 -6 -10 -14 -10 -8 0 -17 -4 -20 -8 -3 -5 16 -8 42 -7
59 3 57 2 42 20 -14 17 -50 20 -50 5z"/>
<path d="M524 666 c-26 -20 -14 -28 45 -30 47 -1 51 1 51 21 0 20 -5 23 -38
23 -21 0 -47 -6 -58 -14z"/>
<path d="M656 645 c-10 -52 5 -66 21 -21 7 21 10 42 7 47 -11 18 -22 8 -28
-26z"/>
<path d="M641 574 c0 -11 3 -14 6 -6 3 7 2 16 -1 19 -3 4 -6 -2 -5 -13z"/>
<path d="M465 550 c3 -5 8 -10 11 -10 2 0 4 5 4 10 0 6 -5 10 -11 10 -5 0 -7
-4 -4 -10z"/>
<path d="M501 546 c-9 -11 -8 -15 5 -20 20 -8 34 1 34 20 0 18 -24 18 -39 0z"/>
<path d="M560 520 c-8 -5 -28 -12 -45 -16 -22 -5 -25 -8 -12 -11 28 -7 64 5
71 22 6 17 6 17 -14 5z"/>
<path d="M323 393 c-3 -10 -17 -33 -30 -50 -24 -32 -24 -33 -4 -50 11 -9 17
-21 14 -26 -3 -6 -2 -8 3 -5 5 3 25 -5 44 -19 l35 -25 -45 6 c-44 7 -45 6 -15
-7 17 -8 57 -27 90 -42 33 -16 68 -28 78 -28 9 1 17 -3 17 -8 0 -6 -4 -8 -8
-5 -4 2 -14 1 -22 -5 -11 -6 -11 -9 -2 -9 10 0 10 -3 0 -14 -7 -8 -17 -12 -21
-9 -4 3 -5 -6 -2 -19 12 -47 12 -63 1 -70 -6 -4 68 -8 165 -8 l176 0 0 30 c0
17 -4 30 -9 30 -6 0 -8 6 -5 13 2 6 -2 20 -10 29 -10 11 -12 22 -6 33 9 15 11
15 25 1 9 -8 18 -13 21 -10 2 3 10 -24 18 -61 12 -62 14 -65 41 -65 l28 0 0
82 c0 64 -5 92 -22 127 -12 25 -23 40 -25 34 -2 -6 -16 0 -31 14 -31 30 -86
55 -159 73 -38 10 -55 20 -60 34 -6 19 -7 19 -19 -9 -9 -21 -13 -24 -14 -11 0
15 -3 16 -15 6 -16 -13 -19 -8 -15 24 1 14 -3 17 -15 12 -9 -3 -28 -6 -43 -6
-20 0 -23 -3 -14 -12 15 -15 16 -53 2 -79 -11 -19 -11 -19 -48 0 -20 10 -48
30 -60 44 -19 21 -22 29 -13 45 15 27 14 32 -4 32 -9 0 -18 -8 -22 -17z m18
-80 c13 -16 12 -17 -3 -4 -17 13 -22 21 -14 21 2 0 10 -8 17 -17z m369 -69 c0
-8 12 -36 26 -60 15 -25 23 -48 19 -52 -12 -12 -53 49 -70 107 -10 31 -22 63
-28 71 -5 8 4 0 22 -18 17 -18 31 -39 31 -48z m-152 -17 c2 -15 -1 -27 -6 -27
-17 0 -34 29 -28 46 9 23 31 11 34 -19z m39 -123 c-3 -3 -12 -4 -19 -1 -8 3
-5 6 6 6 11 1 17 -2 13 -5z m73 -14 c10 -19 10 -20 -9 -8 -22 13 -28 28 -11
28 5 0 14 -9 20 -20z"/>
<path d="M270 205 c0 -9 83 -45 100 -44 8 0 -7 11 -35 24 -52 25 -65 29 -65
20z"/>
<path d="M45 170 c-3 -6 1 -7 9 -4 18 7 21 14 7 14 -6 0 -13 -4 -16 -10z"/>
<path d="M20 124 c-12 -29 -12 -50 -4 -92 l6 -31 125 0 125 -1 -7 28 c-3 15
-11 28 -16 30 -5 2 -9 10 -9 17 0 11 -22 27 -42 29 -4 1 -14 10 -22 21 -15 20
-15 20 -16 -4 0 -20 -2 -22 -15 -11 -14 11 -14 10 -5 -16 11 -29 11 -29 -19 6
l-30 35 19 -42 c25 -53 25 -61 0 -38 -15 14 -20 15 -21 4 0 -8 -6 3 -12 24
-14 45 -21 49 -41 22 -14 -19 -15 -18 -6 13 10 38 4 43 -10 6z"/>
<path d="M810 35 c0 -5 5 -17 10 -25 5 -8 10 -11 10 -5 0 6 -5 17 -10 25 -5 8
-10 11 -10 5z"/>
</g>
</svg>
