<?xml version="1.0" encoding="UTF-8"?>
<!DOCTYPE svg PUBLIC "-//W3C//DTD SVG 1.1//EN" "http://www.w3.org/Graphics/SVG/1.1/DTD/svg11.dtd">
<!-- Creator: CorelDRAW 2018 (64-Bit) -->
<svg xmlns="http://www.w3.org/2000/svg" xml:space="preserve" width="107.443mm" height="15.8795mm" version="1.1" style="shape-rendering:geometricPrecision; text-rendering:geometricPrecision; image-rendering:optimizeQuality; fill-rule:evenodd; clip-rule:evenodd"
viewBox="0 0 8986.05 1328.09"
 xmlns:xlink="http://www.w3.org/1999/xlink">
 <defs>
  <style type="text/css">
   <![CDATA[
    .fil0 {fill:#202020}
    .fil1 {fill:#212121}
   ]]>
  </style>
 </defs>
 <g id="Layer_x0020_1">
  <metadata id="CorelCorpID_0Corel-Layer"/>
  <g id="_2682039775168">
   <g>
    <path class="fil0" d="M1741.92 947.33l0 355.64c489.18,-1.94 1360.78,135.67 1131.81,-533.08l-357.91 3.11c128.16,81.03 146.66,230.29 8,286.76 -97.15,39.53 -369.61,27.52 -486.6,12.77l-0.44 -302.62 -295.43 0 0.57 177.42z"/>
    <path class="fil0" d="M7025.17 774.41l-304.72 -5.55c-110.39,412.62 -671.92,406.47 -770.48,0.99l-304.17 0c119.62,750.66 1276.31,726.5 1379.36,4.56z"/>
    <path class="fil0" d="M4968.43 776.51l-306.84 -7.7c-108.8,399.52 -656.99,417.69 -770.59,1.1l-302.64 -0.03c108.84,706.36 1204.59,778.93 1380.08,6.62z"/>
    <path class="fil0" d="M3595.69 515.43l287.36 -0.21c110.34,-118.39 138.87,-265.71 405.97,-259.93 298.93,6.47 268.3,199.2 406.12,260.59l262.42 -0.21c-157.27,-701.92 -1229.01,-672.97 -1361.86,-0.24z"/>
    <path class="fil0" d="M5652.46 515.56c483.24,0.38 213.03,5.13 422.21,-169.14 63.3,-52.72 143.67,-88.63 244.38,-91.18 328.45,-8.27 292.42,194.74 431.69,260.48l267.48 -4.17c-94.42,-295.96 -304.35,-507.67 -673.15,-509.68 -361.37,-2.01 -625.61,199.03 -692.6,513.69z"/>
    <path class="fil0" d="M1741.77 389.01l-0.29 126.31 295.3 0.33 2.52 -266.59c263.89,-12.41 630.56,-43.41 466.66,265.69 107.72,1.14 237.87,17.47 315.95,-24.22 164.59,-409.26 -282.83,-466.39 -613.8,-466.39l-466.39 0.03 0.06 364.84z"/>
    <path class="fil0" d="M7775.14 1293.25l295.54 11.07c-0.27,-83.93 -13.31,-253.7 8.12,-324.59 11.6,-38.46 36.36,-64.27 62.43,-88.57l106.77 -75.11c485.7,556.58 261.31,477.9 738.04,486.68 -30.6,-72.45 -141.35,-190.7 -196.84,-262.48 -68.88,-89.11 -156.32,-184.73 -204.39,-270.39l-810.37 1.53 0.69 521.87z"/>
    <polygon class="fil0" points="0.45,1301.67 837.7,1302.54 990.01,1302.79 989.46,1065.75 297.19,1063.24 293.98,770.06 0.48,770.03 "/>
    <polygon class="fil0" points="0.24,135.25 0.36,515.92 295.3,511.96 295.39,262.12 967.16,262.1 967.58,24.97 -0,24.2 "/>
    <path class="fil0" d="M8184.65 516.58c296.08,-2.67 288.74,50.02 468.82,-152.72 98.25,-110.63 201,-210.93 291.31,-339.24l-328.84 0.18c-33,78.63 -318.03,343.86 -431.29,491.79z"/>
   </g>
   <polygon class="fil1" points="7773.97,506.62 8070.42,517.41 8066.73,24.76 7784.62,24.88 "/>
  </g>
 </g>
</svg>
